<?xml version="1.0" encoding="utf-8"?>
<!-- Generator: Adobe Illustrator 22.1.0, SVG Export Plug-In . SVG Version: 6.00 Build 0)  -->
<svg version="1.1" id="Layer_1" xmlns="http://www.w3.org/2000/svg" xmlns:xlink="http://www.w3.org/1999/xlink" x="0px" y="0px"
	 viewBox="0 0 183 207" style="enable-background:new 0 0 183 207;" xml:space="preserve">
<style type="text/css">
	.st0{fill:#FFFFFF;}
</style>
<g>
	<g>
		<path class="st0" d="M71.9,7.8c0.7,16.8,0.3,33.6,0.4,50.3c0,6-1.3,11.7,3.4,16c6.6,6,13.4,11.8,20.1,17.8
			c13.1,11.6,26.3,23,39.4,34.5c6.4,5.6,12.8,11.3,19.1,17c3,2.7,6,5.4,8.9,8.3c2.2,2.1,2.6,4.7,4.3,6.9c0.4,0.6,1.3,0.9,1.7,1.5
			c0.4,0.6,1.4,3.9,1.1,4.7c-0.1,0.4-1.1,0.4-1.3,0.8c-1.4,2.2-2.2,2.8-2.2,5.6c0,1.8,0.7,3.7,0.4,5.4c-0.2,1.2-1.2,2.2-1.6,3.4
			c-0.6,2.1-1,5.7-0.3,7.9c0.2,0.8,0.9,1.3,1.2,1.9c0.1,0.3,1.2,0.6,1.2,0.9c0.1,0.6-2.7,1.9-3.2,2.1c-3.8,1.6-8.6,1.7-12.7,2.2
			c-4,0.6-8.1,1.2-12.1,1.7c-5.2,0.7-12.1,3.2-14.3-3.3c-0.9-2.7-1.4-5.7-2.9-8.2c-1.5-2.3-4.1-3.8-6.2-5.4c-2.1-1.7-4.4-3.7-7-4.6
			c-0.2-0.1-4-0.2-4.1-0.2c-0.4-0.3-0.5-2.1-0.8-2.6c-0.7-1.4-1.9-2.2-3.4-2.8c-2.8-1.1-7.4-0.1-9.9-1.7c-1.7-1.1-1.6-3.8-3.6-5
			c-2.8-1.8-7.2-1.8-10.4-2.3c-1.6-0.3-3.2-0.4-4.8-0.6c-1.5-0.2-3.8-0.7-4.7-2.4c-0.5-1.1-0.3-3.1-0.4-4.3c-0.2-3,0-4.7-2.2-6.7
			c-5.4-5.3-9.6-12.2-14.3-18.3c-2.3-3.1-6.2-5.4-4.6-9.5c0.7-1.8,1.9-3.7,0.8-5.8c-1.5-2.8-6-3.7-8.1-5.9c-1.6-1.7-3.1-4.9-2.8-7.4
			c0.1-1-0.6-0.9,0.2-0.9c-0.1,0,3.4,1.9,2.2,1.4c1.4,0.7,2.7-0.2,2.8-1.6c0.4-3.2-2-5.2-2.2-8.3c-0.1-1.6,0.7-2.6-1.1-3.8
			c-1.2-0.8-2.7-0.6-3.8,0.3c-0.6,0.5-0.7,1.4-1.2,1.9c-1.5,1.3-3.6-0.2-5.4-1.1c0.3,0.7,0.6,1.4,0.9,2.1c0.8-5-0.9-8.2-4.4-11.6
			c-1.8-1.8-3-3.9-4.8-5.9c-2-2.2-2.5-5.1-2.9-8c-0.4-3.2,0.7-6.4-0.3-9.6c-0.7-2.4-2.6-4.6-4-6.6c-2.1-2.9-4.8-4.8-4.1-8.9
			c0.6-3.2,2.7-6.1,3.6-9.3c0.7-2.4,0.6-5,0.9-7.4c0.3-2.1,0.3-3.9-0.4-5.9c-0.6-1.5-2.8-4.1-1.2-5.8c0.9-1,5.3-0.7,6.6-0.7
			c3.9-0.1,7.9-0.1,11.8-0.2C44,9.7,58.9,9.7,73.7,9.7c2.4,0,2.4-3.8,0-3.8C57.5,6,41.4,6,25.2,6.2c-3.9,0.1-7.9,0.1-11.8,0.2
			C11.2,6.4,9.5,6.2,8,8c-3.9,4.7,1.2,8.8,0.5,13.7c-0.5,3.5-0.5,6.8-1.9,10.2c-1.1,2.7-2.6,5.4-3,8.3c-0.8,5.7,5,8.5,7.4,13.1
			c2.8,5.6-0.2,13.4,3.2,19.3c0.6,1,1.5,1.5,2.3,2.3c1.1,1.2,1.6,2.5,2.6,3.8c2.6,3.5,6.5,4.6,5.6,10c-0.1,0.8,0.1,1.7,0.9,2.1
			c2.3,1.2,8.4,5.6,10.4,1.6c0.9-1.9-1-5.1-1.3-1.2c-0.2,2.9,3.1,4.5,2.8,7.4c0.9-0.5,1.9-1.1,2.8-1.6c-3.3-1.7-7.4-4.7-8.1,1.4
			c-0.8,6.9,3.5,11.8,9,15.1c0.4,0.2,2.1,1,2.2,1.3c0.8,2.1-1,1.9-1.3,3.2c-0.3,0.9-0.4,1.8-0.4,2.7c0,3,0.8,4.6,2.9,6.6
			c3.4,3.2,5.7,7.2,8.4,10.9c0.9,1.3,1.8,2.5,2.8,3.7c0.7,0.8,1.7,1.6,2.3,2.5c0.5,0.8,0.5,1.4,0.9,2.2c0.6,1,1,1.3,1.8,2.1
			c1.5,1.6,2.3,2.7,2.7,4.9c0.5,3,0,6,2.1,8.5c1.9,2.3,4.1,1.8,6.7,1.9c2.8,0.1,5.7,0.8,8.5,1.3c0.9,0.2,1.9,0.2,2.8,0.5
			c1.8,0.7,2.1,1.5,3.1,2.8c1.3,1.8,1.8,2.7,4.1,3.3c3.6,0.9,8.9-0.2,10.5,3.6c0.8,1.9,0.5,2.6,2.6,3.5c2,0.8,4.5,0.1,6.6,1.3
			c2,1.2,3.9,3,5.8,4.5c2,1.6,3.5,2.9,4.3,5.4c0.6,1.7,1,3.5,1.6,5.2c0.9,2.4,2.1,5.2,4.7,6.3c2.5,1,5.8,0.1,8.3-0.3
			c4.7-0.6,9.3-1.3,14-2c4.6-0.7,9.3-1.1,13.8-2.1c2.4-0.5,7.3-1.4,8.7-3.9c0.9-1.6,0.3-3.2-0.6-4.6c-0.7-1.1-1.7-1-2.2-2.4
			c-0.7-2,0.8-4.7,1.4-6.4c1-2.7,0.1-5,0.3-7.8c0.2-3.6,3.8-4.5,4.3-8.1c0.3-2-0.3-3.8-1.6-5.3c-1.1-1.2-2.3-2-3.1-3.5
			c-0.5-1-0.6-1.8-1.3-2.7c-2.2-3.1-5.6-5.7-8.4-8.3c-3.7-3.4-7.5-6.8-11.2-10.2c-7.1-6.3-14.2-12.6-21.4-18.8
			c-8.3-7.2-16.7-14.5-24.9-21.8c-4.2-3.7-8.4-7.5-12.7-11.2c-4.1-3.6-9.1-7.1-12.7-11.2C74.7,67.6,76,60.5,76,56.3
			c0-5.4,0-10.9,0-16.3c0-10.7,0.1-21.4-0.3-32.1C75.5,5.4,71.8,5.4,71.9,7.8z"/>
		<path class="st0" d="M33.7,95.8c-2.1,4.5,0,10.6,3.4,13.8c1,0.9,2,1.6,3.1,2.3c2.8,1.8,4.3,2.2,3.1,5.5c-0.7,1.9-1.2,3-0.6,5.2
			c0.7,2.7,2.6,4,4.4,6c2.9,3.2,5,7,7.5,10.5c0.8,1,1.5,2,2.4,3c1.4,1.5,1.6,1.8,2.4,3.3c1.1,2.1,4,3.2,4.7,5.3
			c1.4,3.9-1.3,11.1,4.7,12.2c4.1,0.8,8.4,0.8,12.6,1.6c2.8,0.5,4.2,0.8,5.8,3.2c0.6,0.8,0.6,1.7,1.5,2.4c1.9,1.5,5.4,1.3,7.6,1.7
			c2.9,0.5,4.1,1,5.6,3.7c0.4,0.7,0.2,1.2,0.8,1.9c0.5,0.5,0.9,0.5,1.6,0.7c2.4,0.9,4.8,0.3,7.1,1.9c3,2.1,8.1,5.4,9.5,8.8
			c1.8,4.4,2,11.6,7.9,12.4c3.3,0.5,8.1-1,11.3-1.5c4.7-0.7,9.3-1.3,14-2c3.9-0.5,15.7-0.7,17-5.7c0.6-2.1-1.5-3.4-2.2-5.2
			c-1.7-4.1,1.3-7.8,1-12.1c-0.1-1.5-0.7-3.7-0.1-5.2c0.9-2.4,2.4-1.7,3.4-3.4c1-1.5,1.2-3.6,0.6-5.3c-1-2.6-3.7-3.8-4.8-6.5
			c-1.4-3.3-4.3-5.5-6.9-7.9c-13.3-12.3-26.9-24.1-40.6-36c-7.5-6.5-15.1-13.1-22.6-19.7c-3.9-3.4-7.8-6.9-11.7-10.4
			c-3.4-3-9.5-6.6-11.4-10.7c-1.7-3.6-0.4-10.5-0.5-14.5c0-5.1-0.1-10.1-0.1-15.2C75.1,29.6,75.4,19,74.8,8.6
			c-0.1-1-0.8-1.9-1.9-1.9c-15.2,0-30.4,0-45.6,0.2C23.1,7,18.9,7,14.7,7.1c-2.3,0-4.5-0.3-6.1,1.6c-1,1.2-1.5,3.1-1.2,4.7
			c0.1,0.7,0.4,1.3,0.7,1.9c1.4,3.5,1.4,4.4,1.1,8.1C8.8,27.7,8,30.7,6.3,34.7c-0.9,2.1-2.1,4.4-1.9,6.7c0.1,2,1.2,3.5,2.4,5
			c1.4,1.7,3,3.4,4.3,5.3c2,3,2,4.5,1.9,8.1c-0.1,3.2,0.6,6,1.1,9.2c0.3,1.6,0.5,2.7,1.6,3.9c1.6,1.9,3,4.1,4.8,5.9
			c3,3.1,5.5,4.8,5.1,9.8c-0.1,0.9,0.6,1.5,1.4,1.8c2.1,0.7,3.8,2,6,2.6c0.9,0.2,2.2-0.3,2.3-1.3c-0.1-0.7,0.1-1.3,0.4-1.8
			c0.4-0.8,0.4-0.5-0.1,0.9c0.1,0.8-0.1,1.1,0.2,2.1c0.2,0.7,0.8,1.2,1.2,1.8c1.5,2.1,2,2.5-0.3,0.7c-1.9-1.5-4.5,1.1-2.7,2.7
			c1.8,1.5,4.5,4.1,6.9,2.3c2.6-2,0.5-5.2-0.5-7.3c-1.3-2.7,0.9-7.5-3.8-7.9c-3.5-0.3-4.5,2.9-4.9,5.7c0.8-0.4,1.5-0.9,2.3-1.3
			C31.8,89,30,87.7,28,87c0.5,0.6,0.9,1.2,1.4,1.8c0.4-4.5-1.3-8.1-4.6-11.1c-1.6-1.5-2.2-3.1-3.6-4.7c-2-2.4-3-2.6-3.5-5.9
			c-0.4-2.5-1.2-4.3-0.9-7c0.1-1.3,0.5-2.2,0.4-3.5c-0.2-2.2-1.2-4.1-2.3-5.9c-1.5-2.3-4.1-4.4-5.4-6.8c-2.4-4.5,0.8-8.2,2.2-12.3
			c1-2.8,1-5.4,1.3-8.4c0.2-2.2,0.6-4.2-0.1-6.4c-0.6-1.8-1.1-4.4,0.8-5.9c0.5-0.4,5.1-0.1,5.9-0.1c3.9,0,7.8-0.1,11.7-0.1
			c13.9-0.2,27.8-0.1,41.7-0.1c-0.6-0.6-1.2-1.2-1.9-1.9c1,16.6,0.4,33.5,0.4,50.2c0,3.6-0.6,7.7,0.1,11.2c0.6,2.7,2.8,4.1,4.8,5.9
			c6.3,5.6,12.6,11.2,19,16.8c12.7,11.3,25.6,22.3,38.4,33.5c6.5,5.6,12.9,11.3,19.2,17.1c2.8,2.6,5.6,5.1,8.4,7.8
			c1.9,1.8,3.2,3.4,4.4,5.8c0.5,0.9,0.8,2,1.5,2.8c0.5,0.6,1.4,0.9,1.9,1.4c2.1,2.3,0.1,2.8-1.2,4.4c-1.4,1.6-2,3.1-2,5.3
			c-0.1,1.6,0.4,3.2,0.4,4.8c-0.1,1.6-0.7,2.5-1.2,3.9c-0.8,2.4-1.2,6.1-0.6,8.5c0.7,2.5,3.5,2.7,0.1,4c-4,1.4-8.4,1.7-12.5,2.3
			c-3.7,0.5-7.5,1.1-11.2,1.6c-2.2,0.3-4.4,0.6-6.5,0.9c-1,0.1-3,0.8-3.9,0.5c-2-0.6-3.5-2.5-4.4-4.1c-1.4-2.8-1.4-6.1-3.3-8.7
			c-1.7-2.3-4.4-3.8-6.6-5.6c-2.1-1.7-4.4-3.6-7-4.4c-1.7-0.5-2.5,0-4.2-0.2c-0.1,0,1,1.8,0.4,0.2c-0.2-0.4-0.1-1.1-0.2-1.6
			c-1.6-5-8-4.1-11.9-5.3c-3.1-0.9-2.7-3-4.7-4.7c-2.5-2.1-6.8-2.1-9.9-2.6c-2-0.3-4-0.7-6-1c-1-0.1-1.9,0.1-2.9-0.3
			c-1.7-0.7-1.6-1.8-1.9-3.7c-0.3-2.6,0.4-5.8-1.3-8c-0.8-1.1-2-1.4-2.9-2.4c-0.8-0.9-0.6-1.6-1.3-2.5c-2.4-3.2-5.3-5.8-7.5-9.2
			c-1.8-2.7-3.6-5.3-5.8-7.7c-2.3-2.4-2.9-3.5-2-6.9c0.2-1,0.6-1.8,0.7-2.9c0.1-2.2-0.3-3.4-2-4.7c-2.1-1.7-4.8-2.4-6.7-4.5
			c-1.8-1.9-3.5-6.2-2.3-8.7C38,95.6,34.7,93.7,33.7,95.8z"/>
	</g>
</g>
</svg>
