<?xml version="1.0" encoding="utf-8"?>
<!-- Generator: Adobe Illustrator 22.1.0, SVG Export Plug-In . SVG Version: 6.00 Build 0)  -->
<svg version="1.1" id="Layer_1" xmlns="http://www.w3.org/2000/svg" xmlns:xlink="http://www.w3.org/1999/xlink" x="0px" y="0px"
	 viewBox="0 0 606 246" style="enable-background:new 0 0 606 246;" xml:space="preserve">
<style type="text/css">
	.st0{fill:none;stroke:#FFFFFF;stroke-width:7;stroke-miterlimit:10;}
</style>
<g id="XD62px_1_">
	<g>
		<path class="st0" d="M537.7,97.5c-9.3,4.9-10.1,13.2,0.2,17.1c10.7,4.1,15,8.7,10.2,19.6c8.2,2.5,18.5,0.6,16.6,12.3
			c-1,6.1-17.5,18.5-24.4,19.1c-32.6,2.8-58,17.6-76.3,44.9c-10,14.9-18.7,32.1-42.2,26.3c-3.4-0.8-8.1,3.3-13.1,5.5
			c-13.6-13.6-28.4-26.6-41-41.4c-21.4-25.1-43.9-45.1-80.7-38.5c-7.3,1.3-16.2-0.3-24.4-0.7c-5.8-0.3-10.2,0.7-12.8-8
			c-5-16.8-17.6-25.3-36.2-24.9c-21.8,0.5-43.6,1-65.4-1.2c-12-1.2-23.2,1.7-34.1,6.7c-6.4,3-13.1,5.5-20.4,5.5
			c-26.3-0.1-52.6-0.1-79,0c-6,0-11.6-0.7-10.7-8.2c0.7-6.1-2.1-15.4,8-16.1c7.2-0.5,9.5-4,12.5-9.7c3.8-7,8.6-14.3,18.8-13.8
			c19.9,1,36.7-8,49.9-20.9c9.9-9.7,16.6-21.2,33.3-16.2c2.4,0.7,7-2.6,9.3-5.2c6.8-7.8,13.8-8.4,22.6-1.3
			c7.5-14.6,26.3-18.7,29.5-36.7c0.9-5,5.5-6.8,10.7-6.9c6.4-0.2,12.7-1.2,19.1-1.2c74-0.1,148-0.2,221.9,0
			c45.8,0.1,91.7-1,137.5,1.4c3.7,0.2,9.3-2.1,10.6,2.7c2.1,7.6,7.9,13.3,8.7,21.7c1.1,11.3,0.5,13.4-9.7,9.2
			c-9.7-3.9-15.6,1.7-21.7,6c-6,4.3-2.4,12.8,2.3,11.3c11.5-3.7,10.1,8.8,14.6,10.1c7.3,1.1,8.3-7.6,14.3-5.1
			c9.2,19,9.5,25.9-3.1,33.3c-7.1,4.1-9.4,10.8-14,15.6c-14.4-2.3-25.1-14.2-40.1-12.4H537.7z"/>
	</g>
</g>
</svg>
