<?xml version="1.0" encoding="utf-8"?>
<!-- Generator: Adobe Illustrator 22.1.0, SVG Export Plug-In . SVG Version: 6.00 Build 0)  -->
<svg version="1.1" id="Layer_1" xmlns="http://www.w3.org/2000/svg" xmlns:xlink="http://www.w3.org/1999/xlink" x="0px" y="0px"
	 viewBox="0 0 399 240" style="enable-background:new 0 0 399 240;" xml:space="preserve">
<style type="text/css">
	.st0{fill:#FFFFFF;}
</style>
<g>
	<g>
		<g>
			<path class="st0" d="M84.2,140.8c-5.6,17.5,31.5,25.7,30.5,7.7c-0.6,0.8-1.3,1.7-1.9,2.5c2.9-0.8,4.5-0.5,6.2,2
				c0.7,1.1,2.4,1.8,3.6,0.9c4.1-3.1,9-2,13.1-4.6c1.4-0.9,2.4-2.1,3.1-3.5c0.3-0.7,0.5-2.3,1-2.9c-0.6,0.7-0.9,0.5,0.9,0.5
				c3.3-0.1,5.4-2.4,7.8-4.3c2.9-2.4,6.3-1.2,8.6-4.4c2.3-3.1,5-7,5-10.9c0-4.5-0.2-7.1,1.7-11.4c1.2-2.7,2.4-5.4,3.5-8.2
				c2.5-6.2,4.5-12.6,6.4-19c1.8-6,2.7-13.9,6.3-19.1c-1,0.4-2,0.8-3,1.2c3.9,1.6,5.3,6.4,9.1,7.9c2.6,1.1,6.2-0.3,8.3-2.1
				c2.5-2.2,3.5-5.3,4.6-8.3c2-5.7,4.1-11.4,6.2-17.1c-1.3,0.5-2.6,1-3.9,1.6c1.8,0.8,3.6,1.6,5.4,2.4c1.2,0.5,2.9,0.4,3.6-0.9
				c2.5-5,5.6-8.8,9.4-12.8c1.1-1.2,1.7-2.2,2.1-3.8c0.3-1.4,0.1-3.8,0.7-4.3c1.5-1.5,3.8-0.8,4.1-3.7c0.2-2-1.4-3.9-1.4-5.9
				c-0.1-2,0.4-8.1,1.9-9.4c-1.1,0.1-2.1,0.3-3.2,0.4c7.4,4.5,14.8,9,22.2,13.5c1,0.6,2.3,0.4,3.2-0.4c2.3-2,2.8-4.1,3.6-6.9
				c0.3-1.1,0.6-3.5,1.7-4.2c1.6-0.9,5.3,1.8,6.6,2.5c-0.4-1-0.8-2-1.2-3c-0.6,2-1.7,4-1,6c0.6,1.8,2.6,3.8,4.1,4.8
				c1.7,1.1,3.6,1.7,5.6,1.8c0.7,0,2.5-0.5,3.1-0.2c0.9,0.4,1.9,2,2.7,2.6c2.1,1.6,4.8,2.3,6.8,3.9c3.5,2.9-0.2,7.6-1.7,10.9
				c-2.9,6.5-5.1,11.2-4.1,18.4c0.1,1.2,0.7,2.2,1.9,2.5c6.1,1.7,10.7-0.4,15.2-4.5c-1.5-0.4-2.9-0.8-4.4-1.2
				c1.1,3.3,2.9,5.7,5.8,7.6c3,1.9,6.5,2.6,8.8,5.4c0.6,0.7,1.7,0.9,2.6,0.7c1.1-0.2,1.9-0.5,2.7-1.4c0.3-0.3,0.8-1.9,0.9-1.9
				c-0.9,0-1.8,0-2.6,0c3.8,2.2,7.8,3.8,11.7,5.6c2,0.9,4,1.8,5.8,2.9c2.8,1.7,4.6,1.6,1.4,3.9c-0.7,0.5-1.4,1.3-1.3,2.3
				c0.2,2.2,1.7,6,0.1,7.9c-0.8,0.9-1,2.1-0.4,3.2c1.5,2.5,3.4,3.8,5.7,5.5c1,0.6,1.9,1.3,2.7,2.2c0.3,1.8-0.1,2.2-1.3,1.5
				c-0.8,0.2-2-0.6-3-0.4c-5.6,1.3-2.9,7.1-0.3,9.6c0-1.2,0-2.5,0-3.7c-0.9,0.8-1.9,1.3-3,1.6c-1.1,0.4-2,1.3-1.9,2.5
				c0.1,2.6,0.7,4.9,3.1,6.3c3.2,1.8,8.4-0.8,10.1,3.4c0.2-0.9,0.5-1.7,0.7-2.6c-2.6,3.3-5.2,4.4-9.2,2.4c-1.2-0.6-2.2-0.4-3.2,0.4
				c-7.9,6.2,5.7,11.5,10.7,10.8c1.8-0.2,3.4-1.1,5.1-1.8c2.5-1,5-1.2,7.6-1c4,0.2,5.5,1.7,7.3,5.2c1,2,2.6,4.5,1.6,6.5
				c-1.2,2.4-5.8,3.7-8.2,4.4c-6.4,1.8-13.1,2.7-19.6,4.1c-14.5,3-28.9,6.1-43.4,9.1c-28.6,6-57.2,11.3-86.2,15.3
				c-14.2,2-28.4,4.2-42.5,6.4c-14.7,2.3-30,5.6-45,5.7c-4.9,0-10.2-1.6-14.7,1c-1.1,0.6-1.9,2-3,2.4c-1.6,0.6-4.6,0.6-6.3,0.8
				c-4.3,0.5-8.5,1-12.8,1.5c-8.2,1-16.4,2-24.6,2.9c-3.9,0.5-7.9,0.9-11.8,1.4c-4.4,0.5-9.7,2-14.1,1c-3.3-0.7-4.7,4.3-1.4,5.1
				c6.4,1.4,13.9-0.6,20.4-1.4c7.9-0.9,15.7-1.9,23.6-2.8c7.5-0.9,15.1-1.8,22.6-2.7c2.2-0.3,4.8-0.2,6.8-1c2.7-1.1,3.5-3.4,6.9-3.4
				c6.7,0.1,12.9,0.4,19.6-0.5c7.2-0.9,14.5-1.9,21.7-2.9c14.8-2.1,29.5-4.6,44.3-6.8c29.9-4.4,59.6-9,89.2-15.1
				c14.8-3.1,29.5-6.2,44.3-9.3c7.1-1.5,14.1-2.9,21.2-4.4c5.1-1,10.3-2,14.6-5.3c1.5-1.2,4.1-3.2,4.6-5.2c0.5-2.2-1.5-5.4-2.4-7.4
				c-1.4-3.2-3-6.7-6.2-8.4c-3.1-1.7-7.4-1.7-10.8-1.4c-3.1,0.3-5.2,2-8.2,2.7c-1.4,0.3-2.6,0.2-4-0.1c-0.9-0.2-1.9-0.5-2.7-0.9
				c-1.4-0.6-1.5-0.8-0.5-0.7c-1.1,0.1-2.1,0.3-3.2,0.4c6,3,11.4,2.1,15.6-3.3c0.5-0.7,1.1-1.6,0.7-2.6c-1-2.4-2.1-4.3-4.5-5.5
				c-1.9-0.9-8.4-0.1-8.5-2.8c-0.6,0.8-1.3,1.7-1.9,2.5c2.2-0.8,3.8-1.2,5.3-3c0.9-1,1.1-2.7,0-3.7c-1.5-1.4-2.2-0.3,0.3,0.2
				c0.8,0.2,1.6,0.2,2.4,0.1c2.3-0.4,3.8-1.9,4.3-4.1c1.7-7-7.1-8.8-9.9-13.4c-0.1,1.1-0.3,2.1-0.4,3.2c3.4-4,2-6.9,1.5-11.6
				c-0.4,0.8-0.9,1.5-1.3,2.3c4.4-3.1,6.9-6.7,2-10.7c-6.1-4.9-14.2-6.8-20.9-10.8c-0.8-0.5-1.9-0.5-2.6,0c-0.6,0.4-2,2.7-2.3,2.7
				c0.9,0.2,1.7,0.5,2.6,0.7c-3.7-4.6-11.3-4.7-13.3-10.7c-0.6-1.9-2.9-2.5-4.4-1.2c-3.1,2.8-5.9,4.3-10.1,3.2
				c0.6,0.8,1.3,1.7,1.9,2.5c-1-7.8,2.4-13.8,5.6-20.6c2-4.2,3.8-8-0.3-11.6c-1.7-1.5-3.8-2.5-5.8-3.5c-1.2-0.6-2.4-1.3-3.4-2.2
				c-0.7-0.6-1.4-2.1-2.3-2.6c-1.9-1-3.8,0-5.8-0.3c-4.3-0.6-4.8-2.6-3.7-5.9c0.3-1.1-0.2-2.4-1.2-3c-3.4-1.8-8.3-4.9-12.1-2.4
				c-4.2,2.7-2.8,8.8-6.2,11.7c1.1-0.1,2.1-0.3,3.2-0.4c-7.4-4.5-14.8-9-22.2-13.5c-1-0.6-2.3-0.4-3.2,0.4c-3,2.6-2.9,7.9-3.3,11.6
				c-0.2,2.2,0.3,3.7,0.7,5.8c0.2,0.9,1.7-0.8-0.4,0.5c-0.5,0.3-1.1,0.4-1.5,0.8c-1,0.7-1.6,1.6-1.8,2.7c-0.7,3,0.2,4.1-2.2,6.8
				c-3.5,4.1-6.6,7.9-9,12.8c1.2-0.3,2.4-0.6,3.6-0.9c-1.8-0.8-3.6-1.6-5.4-2.4c-1.6-0.7-3.2-0.2-3.9,1.6c-1.4,3.9-2.9,7.8-4.3,11.7
				c-1.1,3-1.8,7.3-3.8,9.9c-2.7,3.6-4.8,1.3-7.2-1.2c-1.9-2-3.8-3.4-6.4-4.5c-1.1-0.5-2.3,0.3-3,1.2c-3,4.3-3.9,10.1-5.3,15.1
				c-1.7,5.8-3.4,11.7-5.4,17.4c-2,5.8-4.8,11.2-6.9,16.9c-0.9,2.4-1.5,5.1-1.4,7.7c0.1,3.4-0.2,5.2-1.9,8.1
				c-1.3,2.1-1.3,2.7-3.7,3.3c-1.5,0.4-2.7,0.9-4,1.7c-1.3,0.9-2.3,2.1-3.6,3c-1.8,1.4-2.9,0.7-4.9,1.2c-3.8,0.9-2.9,5.5-5.8,7.1
				c-1.7,1-4.2,0.7-6.1,1.2c-2.4,0.6-4.4,1.7-6.3,3.1c1.2,0.3,2.4,0.6,3.6,0.9c-3-4.6-6.9-6-12.1-4.5c-1.1,0.3-2,1.4-1.9,2.5
				c0.5,9.4-23.6,4.1-20.2-6.3C90.3,139,85.2,137.6,84.2,140.8L84.2,140.8z"/>
		</g>
	</g>
	<g>
		<g>
			<path class="st0" d="M83.8,141.7c-11,9.5-24.1,18.3-32.2,30.6c-1.8,2.7-2.6,6.9-4.7,9.4c-2.3,2.7-6.2,5-9,7
				c-6,4.3-12.7,7.4-18.8,11.4c-2.8,1.8-0.2,6.4,2.6,4.5c6.4-4.2,13.3-7.4,19.5-11.9c2.8-2.1,5.8-4.2,8.4-6.5c2.3-2,2.9-4,4.1-6.8
				c3-7.2,9.2-12.7,14.8-17.8c6.2-5.6,12.7-10.8,19-16.2C90.1,143.2,86.4,139.5,83.8,141.7L83.8,141.7z"/>
		</g>
	</g>
	<g>
		<g>
			<path class="st0" d="M354.1,116.6c-0.4-9.9,5.5-19.6,9.1-28.6c1.4-3.6,2.8-7.3,2.7-11.2c-0.1-5.3,0.9-9.4,5-13.1
				c2-1.8-0.1-5-2.6-4.4c-6.4,1.6-12.4,3.2-17.2,8.1c-0.8,0.8-1,2.2-0.4,3.2c1.2,2,2.5,3.3,1.4,5.5c-0.7,1.4-2.3,2.5-3.2,3.9
				c-2.2,3.5-2.1,7.2-2,11.2c0.1,5.6,0.2,11.3,0,17c-0.1,3.1,0.1,5,2.8,6.8c2.8,1.9,5.4-2.7,2.6-4.5c-1.3-0.9-0.2-10.4-0.2-12.2
				c0-4.9-1.3-11.6,1.5-15.8c1.5-2.2,4-3.9,4.4-6.8c0.4-2.8-1.4-5.4-2.8-7.7c-0.1,1.1-0.3,2.1-0.4,3.2c4.1-4.2,9.4-5.3,14.9-6.7
				c-0.9-1.5-1.7-2.9-2.6-4.4c-3.2,2.9-5.4,6.4-6.2,10.7c-0.4,2.1-0.3,4.1-0.3,6.2c0,2.9-0.9,5.5-2,8.2
				c-3.8,10.1-10.3,20.4-9.9,31.6C349,120,354.2,120,354.1,116.6L354.1,116.6z"/>
		</g>
	</g>
</g>
</svg>
