<?xml version="1.0" encoding="utf-8"?>
<!-- Generator: Adobe Illustrator 22.1.0, SVG Export Plug-In . SVG Version: 6.00 Build 0)  -->
<svg version="1.1" xmlns="http://www.w3.org/2000/svg" xmlns:xlink="http://www.w3.org/1999/xlink" x="0px" y="0px"
	 viewBox="0 0 605.7 206.4" style="enable-background:new 0 0 605.7 206.4;" xml:space="preserve">
<style type="text/css">
	.st0{display:none;}
	.st1{display:inline;fill:#C7F5F9;stroke:#000000;stroke-miterlimit:10;}
	.st2{fill:#FFFFFF;}
</style>
<g id="Layer_1" class="st0">
	<rect x="-124.8" y="-254.5" class="st1" width="792" height="792"/>
</g>
<g id="Layer_2">
	<path class="st2" d="M605.7,144.9c0,34-27.5,61.5-61.5,61.5H61.5c-34,0-61.5-27.5-61.5-61.5c0-34,27.5-61.5,61.5-61.5h32.6
		c-2.6-6.8-4-14.1-4-21.8c0-34,27.5-61.5,61.5-61.5h142.7c34,0,61.5,27.5,61.5,61.5c0,7.7-1.4,15-4,21.8h192.2
		C578.1,83.3,605.7,110.9,605.7,144.9z"/>
</g>
</svg>
